
          <svg data-logo="logo" xmlns="http://www.w3.org/2000/svg" viewBox="0 0 284 45">
            <g id="logogram" transform="translate(0, 22.5) rotate(0)"></g>
            <g id="logotype" transform="translate(0, 1)"><path fill="#ffffff" d="M0.74 10.27L0.74 9.50L18.94 9.50L19.29 16.78L18.66 16.78Q17.36 13.00 15.66 11.63Q13.97 10.27 10.61 10.27L10.61 10.27L9.63 10.27L9.63 21.64L11.20 21.64Q12.88 21.64 14.00 20.42Q15.12 19.20 15.54 17.06L15.54 17.06L16.07 17.06L16.07 27.42L15.47 27.42Q14.91 24.80 13.91 23.67Q12.92 22.55 11.20 22.55L11.20 22.55L9.63 22.55L9.63 33.23L13.97 33.23L13.97 34L0.74 34L0.74 33.23L2.80 33.23L2.80 10.27L0.74 10.27ZM26.22 14.92Q24.36 14.92 23.57 13.98Q22.79 13.03 22.79 11.63Q22.79 10.23 23.64 9.32Q24.50 8.41 26.25 8.41Q28.00 8.41 28.91 9.24Q29.82 10.06 29.82 11.58Q29.82 13.10 28.95 14.01Q28.07 14.92 26.22 14.92ZM20.93 17.97L20.93 17.34L29.51 17.34L29.51 33.37L31.47 33.37L31.47 34L21.07 34L21.07 33.37L23.00 33.37L23.00 17.97L20.93 17.97ZM32.24 17.97L32.24 17.34L40.67 17.34L40.67 20.56Q41.23 18.95 42.39 17.97Q43.54 16.99 45.89 16.99L45.89 16.99Q51.31 16.99 51.31 22.84L51.31 22.84L51.31 33.37L53.27 33.37L53.27 34L43.37 34L43.37 33.37L44.80 33.37L44.80 21.99Q44.80 19.89 44.52 19.28Q44.24 18.67 43.51 18.67L43.51 18.67Q42.39 18.67 41.53 20.14Q40.67 21.61 40.67 23.71L40.67 23.71L40.67 33.37L42.18 33.37L42.18 34L32.24 34L32.24 33.37L34.16 33.37L34.16 17.97L32.24 17.97ZM62.13 25.77L62.13 25.77L63.14 25.77L63.14 23.08Q63.14 19.75 62.77 18.62Q62.41 17.48 61.36 17.48L61.36 17.48Q60.73 17.48 60.22 17.81Q59.71 18.14 59.71 18.72Q59.71 19.30 59.92 19.89L59.92 19.89L60.80 19.89Q61.08 20.63 61.08 21.66Q61.08 22.70 60.20 23.45Q59.33 24.20 58.00 24.20L58.00 24.20Q54.99 24.20 54.99 21.29L54.99 21.29Q54.99 16.99 62.30 16.99L62.30 16.99Q66.47 16.99 68.06 18.41Q69.65 19.82 69.65 23.60L69.65 23.60L69.65 30.71Q69.65 32.53 70.67 32.53L70.67 32.53Q71.86 32.53 72.07 28.93L72.07 28.93L72.59 28.96Q72.45 32.04 71.44 33.20Q70.42 34.35 68.11 34.35L68.11 34.35Q63.91 34.35 63.28 31.76L63.28 31.76Q62.83 33.09 61.92 33.72Q61.01 34.35 59.26 34.35L59.26 34.35Q54.08 34.35 54.08 30.11L54.08 30.11Q54.08 27.63 56.05 26.70Q58.03 25.77 62.13 25.77ZM60.73 30.08Q60.73 31.90 60.92 32.42Q61.11 32.95 61.65 32.95Q62.20 32.95 62.67 32.06Q63.14 31.16 63.14 29.59L63.14 29.59L63.14 26.34L62.90 26.34Q60.73 26.34 60.73 29.52L60.73 29.52L60.73 30.08ZM73.01 17.97L73.01 17.34L81.45 17.34L81.45 20.56Q82.01 18.95 83.16 17.97Q84.31 16.99 86.66 16.99L86.66 16.99Q92.09 16.99 92.09 22.84L92.09 22.84L92.09 33.37L94.05 33.37L94.05 34L84.14 34L84.14 33.37L85.58 33.37L85.58 21.99Q85.58 19.89 85.30 19.28Q85.02 18.67 84.28 18.67L84.28 18.67Q83.16 18.67 82.30 20.14Q81.45 21.61 81.45 23.71L81.45 23.71L81.45 33.37L82.95 33.37L82.95 34L73.01 34L73.01 33.37L74.94 33.37L74.94 17.97L73.01 17.97ZM104.30 17.62L104.30 17.62Q102.76 17.62 102.10 19.30Q101.43 20.98 101.43 24.86L101.43 24.86L101.43 26.68Q101.43 30.15 102.20 31.66Q102.97 33.16 105.04 33.16Q107.10 33.16 108.33 31.76Q109.55 30.36 109.90 28.57L109.90 28.57L110.53 28.64Q109.87 31.66 108.08 32.98L108.08 32.98Q106.26 34.35 103.08 34.35L103.08 34.35Q99.02 34.35 96.84 32.16Q94.68 29.98 94.68 25.76Q94.68 21.54 97.14 19.27Q99.61 16.99 104.02 16.99L104.02 16.99Q107.14 16.99 108.78 18.20Q110.43 19.41 110.43 21.23Q110.43 23.04 109.64 23.88Q108.85 24.73 107.47 24.73Q106.09 24.73 105.25 23.99Q104.41 23.25 104.41 21.82L104.41 21.82Q104.41 21.19 104.58 20.56L104.58 20.56L105.74 20.56Q105.98 19.86 105.98 19.30L105.98 19.30Q105.98 17.62 104.30 17.62ZM120.61 34.35Q116.10 34.35 113.84 32.02Q111.58 29.70 111.58 25.55Q111.58 21.40 114.12 19.20Q116.66 16.99 120.58 16.99L120.58 16.99Q128.52 16.99 128.21 24.97L128.21 24.97L118.34 24.97L118.34 26.34Q118.34 29.77 119.21 31.52Q120.09 33.27 122.26 33.27L122.26 33.27Q126.32 33.27 127.58 28.93L127.58 28.93L128.21 29.03Q127.54 31.55 125.81 32.95Q124.08 34.35 120.61 34.35L120.61 34.35ZM118.37 22.55L118.37 24.27L121.98 24.27L121.98 22.55Q121.98 19.72 121.64 18.69Q121.31 17.65 120.31 17.65Q119.32 17.65 118.84 18.76Q118.37 19.86 118.37 22.55L118.37 22.55ZM139.69 24.27L130.87 24.27L130.87 23.22L139.69 23.22L139.69 24.27ZM156.41 27.52L160.62 9.50L169.96 9.50L169.96 10.16L168.03 10.16L168.03 33.34L169.96 33.34L169.96 34L159.28 34L159.28 33.34L161.21 33.34L161.21 11.46L161.07 11.46L155.82 34L151.44 34L145.28 11.35L145.15 11.35L145.15 33.34L147.07 33.34L147.07 34L142.31 34L142.31 33.34L144.24 33.34L144.24 10.16L142.31 10.16L142.31 9.50L151.76 9.50L156.41 27.52ZM179.59 25.77L179.59 25.77L180.60 25.77L180.60 23.08Q180.60 19.75 180.23 18.62Q179.87 17.48 178.81 17.48L178.81 17.48Q178.19 17.48 177.68 17.81Q177.17 18.14 177.17 18.72Q177.17 19.30 177.38 19.89L177.38 19.89L178.25 19.89Q178.53 20.63 178.53 21.66Q178.53 22.70 177.66 23.45Q176.78 24.20 175.46 24.20L175.46 24.20Q172.45 24.20 172.45 21.29L172.45 21.29Q172.45 16.99 179.76 16.99L179.76 16.99Q183.93 16.99 185.52 18.41Q187.11 19.82 187.11 23.60L187.11 23.60L187.11 30.71Q187.11 32.53 188.13 32.53L188.13 32.53Q189.31 32.53 189.53 28.93L189.53 28.93L190.05 28.96Q189.91 32.04 188.90 33.20Q187.88 34.35 185.57 34.35L185.57 34.35Q181.37 34.35 180.74 31.76L180.74 31.76Q180.28 33.09 179.38 33.72Q178.47 34.35 176.72 34.35L176.72 34.35Q171.53 34.35 171.53 30.11L171.53 30.11Q171.53 27.63 173.51 26.70Q175.49 25.77 179.59 25.77ZM178.19 30.08Q178.19 31.90 178.38 32.42Q178.57 32.95 179.11 32.95Q179.66 32.95 180.13 32.06Q180.60 31.16 180.60 29.59L180.60 29.59L180.60 26.34L180.36 26.34Q178.19 26.34 178.19 29.52L178.19 29.52L178.19 30.08ZM190.47 17.97L190.47 17.34L198.91 17.34L198.91 20.56Q199.47 18.95 200.62 17.97Q201.78 16.99 204.12 16.99L204.12 16.99Q209.55 16.99 209.55 22.84L209.55 22.84L209.55 33.37L211.51 33.37L211.51 34L201.60 34L201.60 33.37L203.04 33.37L203.04 21.99Q203.04 19.89 202.76 19.28Q202.48 18.67 201.74 18.67L201.74 18.67Q200.62 18.67 199.76 20.14Q198.91 21.61 198.91 23.71L198.91 23.71L198.91 33.37L200.41 33.37L200.41 34L190.47 34L190.47 33.37L192.40 33.37L192.40 17.97L190.47 17.97ZM220.36 25.77L220.36 25.77L221.38 25.77L221.38 23.08Q221.38 19.75 221.01 18.62Q220.64 17.48 219.59 17.48L219.59 17.48Q218.96 17.48 218.45 17.81Q217.95 18.14 217.95 18.72Q217.95 19.30 218.16 19.89L218.16 19.89L219.03 19.89Q219.31 20.63 219.31 21.66Q219.31 22.70 218.44 23.45Q217.56 24.20 216.23 24.20L216.23 24.20Q213.22 24.20 213.22 21.29L213.22 21.29Q213.22 16.99 220.54 16.99L220.54 16.99Q224.70 16.99 226.29 18.41Q227.89 19.82 227.89 23.60L227.89 23.60L227.89 30.71Q227.89 32.53 228.90 32.53L228.90 32.53Q230.09 32.53 230.30 28.93L230.30 28.93L230.83 28.96Q230.69 32.04 229.67 33.20Q228.66 34.35 226.35 34.35L226.35 34.35Q222.15 34.35 221.52 31.76L221.52 31.76Q221.06 33.09 220.15 33.72Q219.24 34.35 217.49 34.35L217.49 34.35Q212.31 34.35 212.31 30.11L212.31 30.11Q212.31 27.63 214.29 26.70Q216.27 25.77 220.36 25.77ZM218.96 30.08Q218.96 31.90 219.15 32.42Q219.35 32.95 219.89 32.95Q220.43 32.95 220.90 32.06Q221.38 31.16 221.38 29.59L221.38 29.59L221.38 26.34L221.13 26.34Q218.96 26.34 218.96 29.52L218.96 29.52L218.96 30.08ZM245.03 15.52L245.03 15.52L246.02 14.92Q246.22 13.84 245.18 13.84L245.18 13.84Q243.67 13.84 243.67 16.15L243.67 16.15Q243.67 17.06 243.92 18.25L243.92 18.25Q246.58 20.03 246.58 22.82Q246.58 25.60 244.65 27.14Q242.72 28.68 239.44 28.68L239.44 28.68Q238.07 28.68 236.60 28.40L236.60 28.40Q235.06 29.38 235.06 29.87Q235.06 30.36 237.30 30.36L237.30 30.36L240.87 30.36Q248.81 30.36 248.81 36.06L248.81 36.06Q248.81 39.15 246.42 40.95Q244.02 42.75 238.94 42.75L238.94 42.75Q230.30 42.75 230.30 39.01L230.30 39.01Q230.30 36.98 233.00 36.20L233.00 36.20L235.09 37.15Q234.81 38.16 234.81 39.08L234.81 39.08Q234.81 42.09 239.30 42.09L239.30 42.09Q242.03 42.09 243.50 41.07Q244.97 40.05 244.97 38.55Q244.97 37.05 244.07 36.54Q243.18 36.03 240.52 36.03L240.52 36.03L237.13 36.03Q234.29 36.03 233.06 35.09Q231.84 34.14 231.84 32.76Q231.84 31.38 232.72 30.45Q233.59 29.52 235.83 28.16L235.83 28.16Q231.77 27 231.77 22.84L231.77 22.84Q231.77 20.21 233.66 18.60Q235.55 16.99 239.33 16.99L239.33 16.99Q241.61 16.99 243.22 17.86L243.22 17.86Q243.00 16.92 243.00 16.15L243.00 16.15Q243.00 14.19 244.06 13.31Q245.11 12.44 246.40 12.44Q247.69 12.44 248.48 13.12Q249.27 13.80 249.27 14.99Q249.27 16.18 248.64 16.76Q248.01 17.34 247.12 17.34Q246.22 17.34 245.65 16.87Q245.07 16.39 245.03 15.52ZM237.62 22.06L237.62 22.06L237.62 23.95Q237.62 26.30 238.02 27.14Q238.42 27.98 239.24 27.98Q240.06 27.98 240.43 27.16Q240.80 26.34 240.80 23.78L240.80 23.78L240.80 22.06Q240.80 19.34 240.45 18.48Q240.10 17.62 239.28 17.62Q238.46 17.62 238.03 18.51Q237.62 19.41 237.62 22.06ZM257.43 34.35Q252.91 34.35 250.65 32.02Q248.40 29.70 248.40 25.55Q248.40 21.40 250.93 19.20Q253.47 16.99 257.39 16.99L257.39 16.99Q265.34 16.99 265.02 24.97L265.02 24.97L255.15 24.97L255.15 26.34Q255.15 29.77 256.02 31.52Q256.90 33.27 259.07 33.27L259.07 33.27Q263.13 33.27 264.39 28.93L264.39 28.93L265.02 29.03Q264.36 31.55 262.62 32.95Q260.89 34.35 257.43 34.35L257.43 34.35ZM255.19 22.55L255.19 24.27L258.79 24.27L258.79 22.55Q258.79 19.72 258.46 18.69Q258.13 17.65 257.13 17.65Q256.13 17.65 255.66 18.76Q255.19 19.86 255.19 22.55L255.19 22.55ZM277.97 18.32L277.97 18.32Q276.68 18.32 275.69 20Q274.72 21.68 274.72 23.99L274.72 23.99L274.72 33.37L277.20 33.37L277.20 34L266.28 34L266.28 33.37L268.20 33.37L268.20 17.97L266.28 17.97L266.28 17.34L274.72 17.34L274.72 20.70Q275.17 18.91 276.47 17.95Q277.76 16.99 279.41 16.99Q281.05 16.99 282.08 17.92Q283.12 18.84 283.12 20.54Q283.12 22.24 282.35 23.15Q281.57 24.06 279.98 24.06Q278.39 24.06 277.64 23.01Q276.88 21.96 277.44 20.10L277.44 20.10L278.70 20.10Q279.58 18.32 277.97 18.32Z"/></g>
            
          </svg>
        